<svg xmlns="http://www.w3.org/2000/svg" viewBox="0 0 256 256">
<path fill="#B8924D" d="M117.7 124.8C103.5 105 88.1 91.4 73.7 76.5C58.2 60.5 53.5 37.1 68.7 17.2C58 40.6 62.6 57.5 78.5 73.2C93.7 88.1 107.4 101.1 122 121.5L117.7 124.8Z"/>
<path fill="#B8924D" d="M138.3 124.8C152.5 105 167.9 91.4 182.3 76.5C197.8 60.5 202.5 37.1 187.3 17.2C198 40.6 193.4 57.5 177.5 73.2C162.3 88.1 148.6 101.1 134 121.5L138.3 124.8Z"/>
<path fill="#B8924D" d="M78.2 77.3C62 78.6 48.4 70.6 39.9 53.1C50.1 66.7 62.1 72.8 76.4 71.4L78.2 77.3Z"/>
<path fill="#B8924D" d="M177.8 77.3C194 78.6 207.6 70.6 216.1 53.1C205.9 66.7 193.9 72.8 179.6 71.4L177.8 77.3Z"/>
<path fill="#B8924D" d="M92.3 92.3C84.4 78.7 83.8 65.8 90.8 53.7C88.9 68 89.7 78.5 97.1 89.8L92.3 92.3Z"/>
<path fill="#B8924D" d="M163.7 92.3C171.6 78.7 172.2 65.8 165.2 53.7C167.1 68 166.3 78.5 158.9 89.8L163.7 92.3Z"/>
<path fill="#B8924D" d="M107.5 114.9C102.7 104.5 102.4 94.9 107.6 85.5C105.9 95.4 107 103.7 112.1 112L107.5 114.9Z"/>
<path fill="#B8924D" d="M148.5 114.9C153.3 104.5 153.6 94.9 148.4 85.5C150.1 95.4 149 103.7 143.9 112L148.5 114.9Z"/>
<path fill="#B8924D" d="M114.2 121.7H158.6L153.3 128.9H119.7L110.1 181.7L102.8 191.3L113.7 124.6L114.2 121.7Z"/>
<path fill="#B8924D" d="M153.3 128.9L158.6 121.7L134.1 151.9L129.1 148L153.3 128.9Z"/>
<path fill="#B8924D" d="M110.1 181.7L134.1 151.9L141.4 193.6L126.5 218.6L102.8 191.3L110.1 181.7Z"/>
</svg>
