<svg xmlns="http://www.w3.org/2000/svg" viewBox="0 0 256 256">
<path fill="#B8924D" d="M126.1 95.2C113.6 80.8 98.4 72.5 86.3 58.5C74.1 44.4 68.7 27.6 74.3 10.5C77.3 27.2 80.1 41.8 91.2 55.2C100.7 66.7 113.1 74.6 124.3 87.3L126.1 95.2Z"/>
<path fill="#B8924D" d="M129.9 95.2C142.4 80.8 157.6 72.5 169.7 58.5C181.9 44.4 187.3 27.6 181.7 10.5C178.7 27.2 175.9 41.8 164.8 55.2C155.3 66.7 142.9 74.6 131.7 87.3L129.9 95.2Z"/>
<path fill="#B8924D" d="M92.2 61.1C77.5 65.3 63 61.5 51.4 52.2C41.7 44.4 36 34 33.8 21.2C41.9 41.7 55.5 53.1 74.9 55.6C79.1 56.1 84.4 55.8 90.4 54.8L92.2 61.1Z"/>
<path fill="#B8924D" d="M163.8 61.1C178.5 65.3 193 61.5 204.6 52.2C214.3 44.4 220 34 222.2 21.2C214.1 41.7 200.5 53.1 181.1 55.6C176.9 56.1 171.6 55.8 165.6 54.8L163.8 61.1Z"/>
<path fill="#B8924D" d="M102.2 76.5C95.2 67 93.1 55.1 96.7 42.4C101.4 55.1 102.4 66.1 109.5 74.1L102.2 76.5Z"/>
<path fill="#B8924D" d="M153.8 76.5C160.8 67 162.9 55.1 159.3 42.4C154.6 55.1 153.6 66.1 146.5 74.1L153.8 76.5Z"/>
<path fill="#B8924D" fill-rule="evenodd" d="M109.5 92H159.5L129.8 124.7L151.7 196L128.3 231L105.3 190.4L112.7 124.4L109.5 92ZM116.5 99.8L119 119.1L146.9 99.8H116.5ZM113.9 131.7L109.1 180.8L125.7 137.1L113.9 131.7Z"/>
<path fill="#B8924D" d="M113.9 131.7L129.8 124.7L151.7 196L128.3 231L109.1 180.8L113.9 131.7Z"/>
</svg>
