<svg xmlns="http://www.w3.org/2000/svg" viewBox="0 0 1536 268" role="img" aria-labelledby="title desc">
  <title id="title">LUMERIA Wordmark</title>
  <desc id="desc">Official LUMERIA website wordmark. Vector outline version.</desc>
  
  <path d="M 90.000 198.439 L 90.000 189.502 L 106.706 189.502 L 106.706 81.502 L 90.000 81.502 L 90.000 72.457 L 141.244 72.457 L 141.244 81.502 L 124.537 81.502 L 124.537 188.071 L 184.500 188.071 L 184.500 166.957 L 195.300 166.957 L 195.300 198.439 L 90.000 198.439 Z M 300.091 79.045 L 283.300 79.045 L 283.300 70.000 L 334.628 70.000 L 334.628 79.045 L 317.837 79.045 L 317.837 144.169 Q 317.837 168.307 326.050 177.838 Q 334.291 187.369 354.400 187.369 Q 374.538 187.369 382.750 177.838 Q 390.963 168.307 390.963 144.169 L 390.963 79.045 L 374.172 79.045 L 374.172 70.000 L 418.469 70.000 L 418.469 79.045 L 401.791 79.045 L 401.791 145.870 Q 401.791 174.625 390.259 186.532 Q 378.756 198.439 351.166 198.439 Q 323.547 198.439 311.819 186.451 Q 300.091 174.463 300.091 145.870 L 300.091 79.045 Z M 507.425 198.439 L 507.425 189.502 L 524.131 189.502 L 524.131 81.502 L 506.469 81.502 L 506.469 72.457 L 544.691 72.457 L 590.759 162.151 L 636.800 72.457 L 672.659 72.457 L 672.659 81.502 L 655.166 81.502 L 655.166 189.502 L 671.956 189.502 L 671.956 198.439 L 620.628 198.439 L 620.628 189.502 L 637.334 189.502 L 637.334 92.113 L 592.334 179.971 L 579.931 179.971 L 534.931 92.113 L 534.931 189.502 L 551.638 189.502 L 551.638 198.439 L 507.425 198.439 Z M 760.659 198.439 L 760.659 189.502 L 777.366 189.502 L 777.366 81.502 L 760.659 81.502 L 760.659 72.457 L 866.297 72.457 L 866.297 100.483 L 855.497 100.483 L 855.497 82.852 L 795.197 82.852 L 795.197 125.026 L 838.172 125.026 L 838.172 109.258 L 849.000 109.258 L 849.000 151.108 L 838.172 151.108 L 838.172 135.313 L 795.197 135.313 L 795.197 188.071 L 856.903 188.071 L 856.903 170.413 L 867.703 170.413 L 867.703 198.439 L 760.659 198.439 Z M 1032.006 135.907 Q 1038.137 137.527 1042.581 141.361 Q 1047.025 145.195 1050.541 152.107 L 1069.609 189.502 L 1085.612 189.502 L 1085.612 198.439 L 1054.675 198.439 L 1034.200 158.371 Q 1028.294 146.707 1023.372 143.305 Q 1018.450 139.876 1009.844 139.876 L 990.241 139.876 L 990.241 189.502 L 1008.803 189.502 L 1008.803 198.439 L 955.703 198.439 L 955.703 189.502 L 972.409 189.502 L 972.409 81.502 L 955.703 81.502 L 955.703 72.457 L 1022.247 72.457 Q 1041.400 72.457 1051.806 81.232 Q 1062.241 90.007 1062.241 106.126 Q 1062.241 119.113 1054.619 126.592 Q 1047.025 134.071 1032.006 135.907 Z M 990.241 130.858 L 1016.172 130.858 Q 1029.447 130.858 1035.775 124.837 Q 1042.103 118.789 1042.103 106.126 Q 1042.103 93.463 1035.775 87.496 Q 1029.447 81.502 1016.172 81.502 L 990.241 81.502 L 990.241 130.858 Z M 1208.150 189.502 L 1224.856 189.502 L 1224.856 198.439 L 1173.612 198.439 L 1173.612 189.502 L 1190.319 189.502 L 1190.319 81.502 L 1173.612 81.502 L 1173.612 72.457 L 1224.856 72.457 L 1224.856 81.502 L 1208.150 81.502 L 1208.150 189.502 Z M 1349.953 152.782 L 1398.131 152.782 L 1374.056 92.896 L 1349.953 152.782 Z M 1312.856 198.439 L 1312.856 189.502 L 1324.388 189.502 L 1371.131 72.457 L 1385.897 72.457 L 1432.753 189.502 L 1445.662 189.502 L 1445.662 198.439 L 1397.962 198.439 L 1397.962 189.502 L 1412.531 189.502 L 1401.562 161.827 L 1346.353 161.827 L 1335.384 189.502 L 1349.784 189.502 L 1349.784 198.439 L 1312.856 198.439 Z" fill="#B8924D"/>
</svg>
